<svg width="283" height="283" viewBox="0 0 283 283" fill="none" xmlns="http://www.w3.org/2000/svg">
<path d="M271.208 224.042C271.208 230.296 268.724 236.295 264.301 240.718C259.878 245.14 253.88 247.625 247.625 247.625H35.375C29.1203 247.625 23.1218 245.14 18.699 240.718C14.2763 236.295 11.7916 230.296 11.7916 224.042V94.3333C11.7916 88.0786 14.2763 82.0801 18.699 77.6574C23.1218 73.2347 29.1203 70.75 35.375 70.75H82.5416L106.125 35.375H176.875L200.458 70.75H247.625C253.88 70.75 259.878 73.2347 264.301 77.6574C268.724 82.0801 271.208 88.0786 271.208 94.3333V224.042Z" stroke="white" stroke-width="10" stroke-linecap="round" stroke-linejoin="round"/>
<path d="M141.5 200.458C167.549 200.458 188.667 179.341 188.667 153.292C188.667 127.242 167.549 106.125 141.5 106.125C115.451 106.125 94.3333 127.242 94.3333 153.292C94.3333 179.341 115.451 200.458 141.5 200.458Z" stroke="white" stroke-width="10" stroke-linecap="round" stroke-linejoin="round"/>
</svg>
