<svg width="102" height="84" viewBox="0 0 102 84" fill="none" xmlns="http://www.w3.org/2000/svg">
<path d="M99 72.3333C99 74.6319 98.0805 76.8363 96.4438 78.4616C94.8072 80.0869 92.5873 81 90.2727 81H11.7273C9.41266 81 7.19284 80.0869 5.55616 78.4616C3.91948 76.8363 3 74.6319 3 72.3333V24.6667C3 22.3681 3.91948 20.1637 5.55616 18.5384C7.19284 16.9131 9.41266 16 11.7273 16H29.1818L37.9091 3H64.0909L72.8182 16H90.2727C92.5873 16 94.8072 16.9131 96.4438 18.5384C98.0805 20.1637 99 22.3681 99 24.6667V72.3333Z" stroke="white" stroke-width="5" stroke-linecap="round" stroke-linejoin="round"/>
<path d="M51 63.6667C60.6399 63.6667 68.4545 55.9063 68.4545 46.3333C68.4545 36.7604 60.6399 29 51 29C41.3601 29 33.5455 36.7604 33.5455 46.3333C33.5455 55.9063 41.3601 63.6667 51 63.6667Z" stroke="white" stroke-width="5" stroke-linecap="round" stroke-linejoin="round"/>
</svg>
