<svg width="281" height="233" viewBox="0 0 281 233" fill="none" xmlns="http://www.w3.org/2000/svg">
<path d="M270.208 199.042C270.208 205.296 267.724 211.295 263.301 215.718C258.878 220.14 252.88 222.625 246.625 222.625H34.375C28.1203 222.625 22.1218 220.14 17.699 215.718C13.2763 211.295 10.7916 205.296 10.7916 199.042V69.3333C10.7916 63.0786 13.2763 57.0801 17.699 52.6574C22.1218 48.2347 28.1203 45.75 34.375 45.75H81.5416L105.125 10.375H175.875L199.458 45.75H246.625C252.88 45.75 258.878 48.2347 263.301 52.6574C267.724 57.0801 270.208 63.0786 270.208 69.3333V199.042Z" stroke="white" stroke-width="20" stroke-linecap="round" stroke-linejoin="round"/>
<path d="M140.5 175.458C166.549 175.458 187.667 154.341 187.667 128.292C187.667 102.242 166.549 81.125 140.5 81.125C114.451 81.125 93.3333 102.242 93.3333 128.292C93.3333 154.341 114.451 175.458 140.5 175.458Z" stroke="white" stroke-width="20" stroke-linecap="round" stroke-linejoin="round"/>
</svg>
