<svg width="620" height="620" viewBox="0 0 620 620" fill="none" xmlns="http://www.w3.org/2000/svg">
<path d="M129.167 490.833H165.979L418.5 238.313L381.688 201.5L129.167 454.021V490.833ZM77.5 542.5V432.708L418.5 92.3542C423.667 87.6181 429.372 83.9583 435.615 81.375C441.858 78.7917 448.424 77.5 455.313 77.5C462.201 77.5 468.875 78.7917 475.333 81.375C481.792 83.9583 487.389 87.8333 492.125 93L527.646 129.167C532.813 133.903 536.58 139.5 538.948 145.958C541.316 152.417 542.5 158.875 542.5 165.333C542.5 172.222 541.316 178.788 538.948 185.031C536.58 191.274 532.813 196.979 527.646 202.146L187.292 542.5H77.5ZM399.771 220.229L381.688 201.5L418.5 238.313L399.771 220.229Z" fill="white" fill-opacity="0.8"/>
</svg>
